<?xml version="1.0" encoding="UTF-8"?>
<svg xmlns="http://www.w3.org/2000/svg" version="1.1" width="2200" height="1240" viewBox="0 0 2200 1240" class="diagram-svg">
  <style>
    .diagram-svg { background: #ffffff; font-family: Inter, Arial, sans-serif; }
    .page-title { font: 700 31px Inter, Arial, sans-serif; fill: #152033; }
    .page-subtitle { font: 15px Inter, Arial, sans-serif; fill: #5f6b7a; }
    .diagram-link { fill: none; stroke: #c7d3de; stroke-width: 2.2; }
    .root-card { fill: #eef8fb; stroke: #087c8f; stroke-width: 2; }
    .main-card { fill: #f8fbfd; stroke: #cbd6e2; stroke-width: 1.4; }
    .aggregate-card { fill: #ffffff; stroke: #cbd6e2; stroke-width: 1.2; }
    .question-band { fill: #fffdf7; stroke: #e8d49b; stroke-width: 1.2; }
    .card-title { font: 700 18px Inter, Arial, sans-serif; fill: #152033; }
    .card-subtitle { font: 12px Inter, Arial, sans-serif; fill: #5f6b7a; }
    .root-title { font: 700 22px Inter, Arial, sans-serif; fill: #152033; }
    .root-subtitle { font: 13px Inter, Arial, sans-serif; fill: #087c8f; }
    .leaf-title { font: 12.5px Inter, Arial, sans-serif; fill: #152033; }
    .leaf-weight { font: 700 11.5px Inter, Arial, sans-serif; fill: #087c8f; }
    .leaf-dot { fill: #087c8f; opacity: .85; }
    .legend-text { font: 11.5px Inter, Arial, sans-serif; fill: #5f6b7a; }
  </style>
  <rect width="2200" height="1240" fill="#ffffff"></rect>
  <text x="64" y="48" class="page-title" text-anchor="start">Árvore de composição do iGovTI 2026</text>
  <text x="64" y="76" class="page-subtitle" text-anchor="start">Versão compacta para relatório: agregados, pesos e folhas identificadas pelo número da questão</text>
  <rect x="780" y="112" width="640" height="92" rx="14" class="root-card"></rect>
  <text x="1100" y="148" class="root-title" text-anchor="middle">iGovTI 2026</text>
  <text x="1100" y="176" class="root-subtitle" text-anchor="middle">47,8% Governança de TIC  ·  52,2% Gestão de TIC</text>
  <path class="diagram-link" d="M 1100 204 C 1100 236.0, 370 236.0, 370 268"></path>
  <path class="diagram-link" d="M 1100 204 C 1100 236.0, 1450 236.0, 1450 268"></path>
  <rect x="70" y="268" width="610" height="445" rx="14" class="main-card"></rect>
  <text x="96" y="306" class="card-title" text-anchor="start">Governança de TIC</text>
  <text x="96" y="330" class="card-subtitle" text-anchor="start">Componente do índice · peso 47,8%</text>
  <rect x="96" y="356" width="530" height="305" rx="10" class="question-band"></rect>

<circle cx="114" cy="387" r="3.5" class="leaf-dot"></circle>
<text x="126" y="392" class="leaf-title" text-anchor="start">1001. Modelo de gestão de TIC</text>
<text x="486" y="392" class="leaf-weight" text-anchor="end">· 32,7%</text>
<circle cx="114" cy="409" r="3.5" class="leaf-dot"></circle>
<text x="126" y="414" class="leaf-title" text-anchor="start">1002. Monitoramento de desempenho</text>
<text x="486" y="414" class="leaf-weight" text-anchor="end">· 27,6%</text>
<circle cx="114" cy="431" r="3.5" class="leaf-dot"></circle>
<text x="126" y="436" class="leaf-title" text-anchor="start">1003. Auditoria interna</text>
<text x="486" y="436" class="leaf-weight" text-anchor="end">· 15,4%</text>
<circle cx="114" cy="453" r="3.5" class="leaf-dot"></circle>
<text x="126" y="458" class="leaf-title" text-anchor="start">1004. Simplificação de serviços</text>
<text x="486" y="458" class="leaf-weight" text-anchor="end">· 24,3%</text>

  <rect x="750" y="268" width="1380" height="740" rx="14" class="main-card"></rect>
  <text x="776" y="306" class="card-title" text-anchor="start">Gestão de TIC</text>
  <text x="776" y="330" class="card-subtitle" text-anchor="start">Componente do índice · peso 52,2%</text>

<path class="diagram-link" d="M 1450 352 C 1450 384.0, 970 384.0, 970 390"></path>

  <rect x="760" y="390" width="420" height="176" rx="10" class="aggregate-card"></rect>
  <text x="786" y="424" class="card-title" text-anchor="start">Planejamento de TIC</text>
  <text x="786" y="448" class="card-subtitle" text-anchor="start">Dimensão da gestão · peso 15,3%</text>
  <circle cx="778" cy="467" r="3.5" class="leaf-dot"></circle>
<text x="790" y="472" class="leaf-title" text-anchor="start">2101. Processo de planejamento</text>
<text x="1150" y="472" class="leaf-weight" text-anchor="end">· 50,2%</text>
<circle cx="778" cy="489" r="3.5" class="leaf-dot"></circle>
<text x="790" y="494" class="leaf-title" text-anchor="start">2102. Plano de TIC</text>
<text x="1150" y="494" class="leaf-weight" text-anchor="end">· 49,8%</text>

<path class="diagram-link" d="M 1450 352 C 1450 384.0, 1420 384.0, 1420 390"></path>

  <rect x="1210" y="390" width="420" height="226" rx="10" class="aggregate-card"></rect>
  <text x="1236" y="424" class="card-title" text-anchor="start">Serviços de TIC</text>
  <text x="1236" y="448" class="card-subtitle" text-anchor="start">Dimensão da gestão · peso 18,5%</text>
  <circle cx="1228" cy="467" r="3.5" class="leaf-dot"></circle>
<text x="1240" y="472" class="leaf-title" text-anchor="start">2201. Catálogo de serviços</text>
<text x="1600" y="472" class="leaf-weight" text-anchor="end">· 24,4%</text>
<circle cx="1228" cy="489" r="3.5" class="leaf-dot"></circle>
<text x="1240" y="494" class="leaf-title" text-anchor="start">2202. Níveis de serviço</text>
<text x="1600" y="494" class="leaf-weight" text-anchor="end">· 24,1%</text>
<circle cx="1228" cy="511" r="3.5" class="leaf-dot"></circle>
<text x="1240" y="516" class="leaf-title" text-anchor="start">2203. Ativos de TIC</text>
<text x="1600" y="516" class="leaf-weight" text-anchor="end">· 26,2%</text>
<circle cx="1228" cy="533" r="3.5" class="leaf-dot"></circle>
<text x="1240" y="538" class="leaf-title" text-anchor="start">2204. Incidentes de TIC</text>
<text x="1600" y="538" class="leaf-weight" text-anchor="end">· 25,3%</text>

<path class="diagram-link" d="M 1450 352 C 1450 384.0, 1870 384.0, 1870 390"></path>

  <rect x="1660" y="390" width="420" height="196" rx="10" class="aggregate-card"></rect>
  <text x="1686" y="424" class="card-title" text-anchor="start">Riscos de TIC e SegInfo</text>
  <text x="1686" y="448" class="card-subtitle" text-anchor="start">Dimensão da gestão · peso 16,3%</text>
  <circle cx="1678" cy="467" r="3.5" class="leaf-dot"></circle>
<text x="1690" y="472" class="leaf-title" text-anchor="start">2301. Gestão de riscos de TIC</text>
<text x="2050" y="472" class="leaf-weight" text-anchor="end">· 31,4%</text>
<circle cx="1678" cy="489" r="3.5" class="leaf-dot"></circle>
<text x="1690" y="494" class="leaf-title" text-anchor="start">2302. Continuidade de TIC</text>
<text x="2050" y="494" class="leaf-weight" text-anchor="end">· 33,5%</text>
<circle cx="1678" cy="511" r="3.5" class="leaf-dot"></circle>
<text x="1690" y="516" class="leaf-title" text-anchor="start">2303. Riscos em contratações</text>
<text x="2050" y="516" class="leaf-weight" text-anchor="end">· 35,2%</text>

<path class="diagram-link" d="M 1450 352 C 1450 508.5, 970 508.5, 970 665"></path>

  <rect x="760" y="665" width="420" height="204" rx="10" class="aggregate-card"></rect>
  <text x="786" y="699" class="card-title" text-anchor="start">Estrutura de SegInfo</text>
  <text x="786" y="723" class="card-subtitle" text-anchor="start">Dimensão da gestão · peso 15,8%</text>
  <circle cx="778" cy="742" r="3.5" class="leaf-dot"></circle>
<text x="790" y="747" class="leaf-title" text-anchor="start">2401. Política de segurança</text>
<text x="1150" y="747" class="leaf-weight" text-anchor="end">· 35,3%</text>
<circle cx="778" cy="764" r="3.5" class="leaf-dot"></circle>
<text x="790" y="769" class="leaf-title" text-anchor="start">2402. Gestor de segurança</text>
<text x="1150" y="769" class="leaf-weight" text-anchor="end">· 31,4%</text>
<circle cx="778" cy="786" r="3.5" class="leaf-dot"></circle>
<text x="790" y="791" class="leaf-title" text-anchor="start">2403. Comitê de segurança</text>
<text x="1150" y="791" class="leaf-weight" text-anchor="end">· 33,3%</text>

<path class="diagram-link" d="M 1450 352 C 1450 508.5, 1420 508.5, 1420 665"></path>

  <rect x="1210" y="665" width="420" height="260" rx="10" class="aggregate-card"></rect>
  <text x="1236" y="699" class="card-title" text-anchor="start">Processos de SegInfo</text>
  <text x="1236" y="723" class="card-subtitle" text-anchor="start">Dimensão da gestão · peso 18,2%</text>
  <circle cx="1228" cy="742" r="3.5" class="leaf-dot"></circle>
<text x="1240" y="747" class="leaf-title" text-anchor="start">2501A. Papéis definidos</text>
<text x="1600" y="747" class="leaf-weight" text-anchor="end">· 3,1%</text>
<circle cx="1228" cy="764" r="3.5" class="leaf-dot"></circle>
<text x="1240" y="769" class="leaf-title" text-anchor="start">2501C. Responsabilidades definidas</text>
<text x="1600" y="769" class="leaf-weight" text-anchor="end">· 3,1%</text>
<circle cx="1228" cy="786" r="3.5" class="leaf-dot"></circle>
<text x="1240" y="791" class="leaf-title" text-anchor="start">2502. Processo de SegInfo</text>
<text x="1600" y="791" class="leaf-weight" text-anchor="end">· 31,3%</text>
<circle cx="1228" cy="808" r="3.5" class="leaf-dot"></circle>
<text x="1240" y="813" class="leaf-title" text-anchor="start">2503. Tratamento de incidentes</text>
<text x="1600" y="813" class="leaf-weight" text-anchor="end">· 30,1%</text>
<circle cx="1228" cy="830" r="3.5" class="leaf-dot"></circle>
<text x="1240" y="835" class="leaf-title" text-anchor="start">2504. Conscientização</text>
<text x="1600" y="835" class="leaf-weight" text-anchor="end">· 32,3%</text>

<path class="diagram-link" d="M 1450 352 C 1450 508.5, 1870 508.5, 1870 665"></path>

  <rect x="1660" y="665" width="420" height="176" rx="10" class="aggregate-card"></rect>
  <text x="1686" y="699" class="card-title" text-anchor="start">Soluções de TIC</text>
  <text x="1686" y="723" class="card-subtitle" text-anchor="start">Dimensão da gestão · peso 15,8%</text>
  <circle cx="1678" cy="742" r="3.5" class="leaf-dot"></circle>
<text x="1690" y="747" class="leaf-title" text-anchor="start">2601. Processo de software</text>
<text x="2050" y="747" class="leaf-weight" text-anchor="end">· 50,9%</text>
<circle cx="1678" cy="764" r="3.5" class="leaf-dot"></circle>
<text x="1690" y="769" class="leaf-title" text-anchor="start">2602. Gestão de projetos</text>
<text x="2050" y="769" class="leaf-weight" text-anchor="end">· 49,1%</text>


  <g transform="translate(70, 1078)">
    <rect width="830" height="82" rx="10" fill="#ffffff" stroke="#d7e2ea"></rect>
    <rect x="22" y="22" width="26" height="16" rx="4" fill="#f8fbfd" stroke="#cbd6e2"></rect>
    <text x="58" y="35" class="legend-text">Agregado ponderado</text>
    <rect x="222" y="22" width="26" height="16" rx="4" fill="#fffdf7" stroke="#e8d49b"></rect>
    <text x="258" y="35" class="legend-text">Folhas: questões e subitens do questionário</text>
    <text x="22" y="62" class="legend-text">Os percentuais nas folhas indicam o peso do item dentro do respectivo agregado apresentado no cartão.</text>
  </g>
</svg>
